<svg class="MuiSvgIcon-root svg-icon " focusable="false" viewBox="0 0 14 14" aria-hidden="true" width="100%" height="100%" xmlns="http://www.w3.org/2000/svg" xmlns:xlink="http://www.w3.org/1999/xlink"><path fill-rule="evenodd" clip-rule="evenodd" d="M2.23718 2.23779C3.45617 1.0188 5.10947 0.333984 6.83337 0.333984C8.55728 0.333984 10.2106 1.0188 11.4296 2.23779C12.6486 3.45678 13.3334 5.11008 13.3334 6.83398C13.3334 7.68758 13.1652 8.53281 12.8386 9.32143C12.5119 10.11 12.0331 10.8266 11.4296 11.4302C10.826 12.0338 10.1094 12.5125 9.32082 12.8392C8.5322 13.1659 7.68697 13.334 6.83337 13.334C5.97978 13.334 5.13455 13.1659 4.34593 12.8392C3.55732 12.5125 2.84076 12.0338 2.23718 11.4302C1.6336 10.8266 1.15481 10.11 0.828157 9.32143C0.501501 8.53281 0.333374 7.68758 0.333374 6.83398C0.333374 5.11008 1.01819 3.45678 2.23718 2.23779ZM6.83337 1.33398C5.37468 1.33398 3.97574 1.91345 2.94429 2.9449C1.91284 3.97635 1.33337 5.37529 1.33337 6.83398C1.33337 7.55625 1.47564 8.27145 1.75204 8.93874C2.02844 9.60603 2.43356 10.2123 2.94429 10.7231C3.45501 11.2338 4.06132 11.6389 4.72862 11.9153C5.39591 12.1917 6.1111 12.334 6.83337 12.334C7.55564 12.334 8.27084 12.1917 8.93813 11.9153C9.60542 11.6389 10.2117 11.2338 10.7225 10.7231C11.2332 10.2123 11.6383 9.60603 11.9147 8.93874C12.1911 8.27145 12.3334 7.55625 12.3334 6.83398C12.3334 5.37529 11.7539 3.97635 10.7225 2.9449C9.69101 1.91345 8.29206 1.33398 6.83337 1.33398ZM6.48382 4.36952C6.88652 4.28894 7.30463 4.34694 7.67019 4.53406C8.0373 4.72125 8.33065 5.02667 8.50289 5.40104C8.67521 5.77557 8.71626 6.19725 8.61941 6.59799C8.52257 6.99873 8.29348 7.35512 7.96914 7.60963C7.6448 7.86413 7.24414 8.00189 6.83187 8.00065C6.55573 7.99982 6.33255 7.77529 6.33338 7.49915C6.33421 7.22301 6.55874 6.99982 6.83488 7.00065C7.02227 7.00122 7.20439 6.9386 7.35182 6.82292C7.49924 6.70723 7.60338 6.54523 7.6474 6.36308C7.69142 6.18093 7.67276 5.98925 7.59443 5.81901C7.5161 5.64877 7.38268 5.5099 7.21571 5.42482L7.21475 5.42433C7.04999 5.33993 6.86153 5.31376 6.68001 5.35008C6.49849 5.3864 6.33461 5.48307 6.21501 5.62436C6.0366 5.83513 5.72111 5.86136 5.51033 5.68295C5.29956 5.50454 5.27333 5.18905 5.45174 4.97828C5.71719 4.66468 6.08094 4.45012 6.48382 4.36952ZM6.83337 9.00065C7.10952 9.00065 7.33337 9.22451 7.33337 9.50065V9.50732C7.33337 9.78346 7.10952 10.0073 6.83337 10.0073C6.55723 10.0073 6.33337 9.78346 6.33337 9.50732V9.50065C6.33337 9.22451 6.55723 9.00065 6.83337 9.00065Z"></path></svg>