<svg class="MuiSvgIcon-root svg-icon " focusable="false" viewBox="0 0 16 16" aria-hidden="true" width="100%" height="100%" xmlns="http://www.w3.org/2000/svg" xmlns:xlink="http://www.w3.org/1999/xlink"><path fill-rule="evenodd" clip-rule="evenodd" d="M4.51256 0.994783C5.30117 0.668128 6.14641 0.5 7 0.5C7.85359 0.5 8.69883 0.668128 9.48744 0.994783C10.2761 1.32144 10.9926 1.80023 11.5962 2.40381C12.1998 3.00739 12.6786 3.72394 13.0052 4.51256C13.3319 5.30117 13.5 6.14641 13.5 7C13.5 7.85359 13.3319 8.69883 13.0052 9.48744C12.6786 10.2761 12.1998 10.9926 11.5962 11.5962C10.9926 12.1998 10.2761 12.6786 9.48744 13.0052C8.69883 13.3319 7.85359 13.5 7 13.5C6.14641 13.5 5.30117 13.3319 4.51256 13.0052C3.72394 12.6786 3.00739 12.1998 2.40381 11.5962C1.80023 10.9926 1.32144 10.2761 0.994783 9.48744C0.668127 8.69883 0.5 7.85359 0.5 7C0.5 6.14641 0.668127 5.30117 0.994783 4.51256C1.32144 3.72394 1.80023 3.00739 2.40381 2.40381C3.00739 1.80023 3.72394 1.32144 4.51256 0.994783ZM7 1.5C6.27773 1.5 5.56253 1.64226 4.89524 1.91866C4.22795 2.19506 3.62163 2.60019 3.11091 3.11091C2.60019 3.62163 2.19506 4.22795 1.91866 4.89524C1.64226 5.56253 1.5 6.27773 1.5 7C1.5 7.72227 1.64226 8.43747 1.91866 9.10476C2.19506 9.77205 2.60019 10.3784 3.11091 10.8891C3.62164 11.3998 4.22795 11.8049 4.89524 12.0813C5.56253 12.3577 6.27773 12.5 7 12.5C7.72227 12.5 8.43747 12.3577 9.10476 12.0813C9.77205 11.8049 10.3784 11.3998 10.8891 10.8891C11.3998 10.3784 11.8049 9.77205 12.0813 9.10476C12.3577 8.43747 12.5 7.72227 12.5 7C12.5 6.27773 12.3577 5.56253 12.0813 4.89524C11.8049 4.22795 11.3998 3.62164 10.8891 3.11091C10.3784 2.60019 9.77205 2.19506 9.10476 1.91866C8.43747 1.64226 7.72227 1.5 7 1.5ZM9.35355 5.31311C9.54882 5.50838 9.54882 5.82496 9.35355 6.02022L6.68689 8.68689C6.49162 8.88215 6.17504 8.88215 5.97978 8.68689L4.64645 7.35355C4.45118 7.15829 4.45118 6.84171 4.64645 6.64645C4.84171 6.45118 5.15829 6.45118 5.35355 6.64645L6.33333 7.62623L8.64645 5.31311C8.84171 5.11785 9.15829 5.11785 9.35355 5.31311Z" fill="#2F2C2C"></path></svg>