<svg width="176" height="30" viewBox="0 0 176 30" fill="none" xmlns="http://www.w3.org/2000/svg">
<g id="Logo - Horizontal">
<path id="Logo" fill-rule="evenodd" clip-rule="evenodd" d="M10.3946 22.3992C18.028 29.0016 26.6175 31.4073 29.5758 27.7717C31.4672 25.449 30.6016 21.2182 27.7367 16.7438C27.6189 16.5416 27.3424 16.5335 27.198 16.7112C27.1455 16.7749 27.1197 16.8534 27.1197 16.9326C27.1197 16.9963 27.1369 17.0599 27.17 17.1169C29.0808 20.3393 29.634 23.2248 28.3438 24.8093C26.0831 27.5866 19.0201 25.312 12.5677 19.7321C11.0756 18.4416 9.74808 17.0881 8.61522 15.7346C9.51533 14.6558 10.5045 13.5555 11.5691 12.4582C17.6228 6.21781 23.803 2.46975 25.3704 4.08537C26.517 5.2671 24.8791 8.99368 21.5458 13.3519C21.4022 13.5392 21.4173 13.8087 21.5818 13.9783C21.7664 14.1685 22.0767 14.1737 22.2455 13.9635C27.0112 8.6205 29.2353 3.61445 26.8812 1.18806C24.609 -1.15392 16.8908 3.0036 9.6432 10.4745C8.67197 11.4763 7.75892 12.4856 6.91125 13.4888C4.40055 9.79631 3.52773 6.37848 4.97524 4.59997C6.2173 3.07468 8.90687 3.07394 12.1474 4.30676C12.2846 4.35859 12.4384 4.31786 12.5325 4.20236C12.5885 4.13424 12.6144 4.05131 12.6144 3.96986C12.6144 3.8314 12.5382 3.69738 12.3996 3.64629C7.78837 1.67675 3.76982 1.60196 1.93008 3.86176C-0.155344 6.42365 1.11114 11.3023 4.71304 16.2699C0.728968 21.6891 -1.05043 26.5071 0.633424 28.2427C2.08453 29.7391 5.75755 28.5825 10.1116 25.6045C10.3558 25.449 10.3802 25.0988 10.1798 24.8929C10.0311 24.7397 9.79765 24.7138 9.62093 24.8315C6.66485 26.8047 4.32512 27.5933 3.44296 26.684C2.39127 25.6001 3.6829 22.377 6.47376 18.489C7.62818 19.8247 8.94135 21.1434 10.3946 22.3992ZM57.3657 18.6483H61.1681C61.4475 18.6483 61.6494 18.9185 61.5854 19.1991C60.3822 24.5021 56.7752 27.4549 50.9557 27.4549C44.5946 27.4549 39.5998 22.925 39.5998 16.2196C39.5998 9.55281 44.5946 4.98731 50.9557 4.98731C57.5015 4.98731 60.7414 9.40842 61.7018 13.5696C61.7665 13.8503 61.5632 14.1205 61.2837 14.1205H57.4627C57.2724 14.1205 57.1086 13.9895 57.0518 13.8021C56.1747 10.9278 53.835 9.11818 50.9565 9.11818C47.3359 9.11818 44.3834 11.9807 44.3834 16.2196C44.3834 20.4231 47.1944 23.3241 50.9565 23.3241C52.4499 23.3241 53.7595 22.8694 54.8026 22.0557C55.7738 21.3005 56.5159 20.2394 56.9591 18.9511C57.0209 18.7719 57.1811 18.6483 57.3657 18.6483ZM128.402 9.48003C128.132 9.48003 127.91 9.25198 127.91 8.97284V5.85637C127.91 5.57723 128.132 5.34917 128.402 5.34917H148.37C148.641 5.34917 148.862 5.57723 148.862 5.85637V8.97284C148.862 9.25198 148.641 9.48003 148.37 9.48003H140.777V26.6551C140.777 26.8942 140.587 27.0897 140.355 27.0897H136.417C136.185 27.0897 135.996 26.8942 135.996 26.6551V9.48003H128.402ZM75.8824 22.9595V18.0319H86.992C87.2628 18.0319 87.484 17.8039 87.484 17.5247V14.4083C87.484 14.1291 87.2628 13.9011 86.992 13.9011H75.8831V9.48071H88.0465C88.3174 9.48071 88.5386 9.25265 88.5386 8.97351V5.85704C88.5386 5.5779 88.3174 5.34984 88.0465 5.34984H71.5233C71.2913 5.34984 71.1017 5.54532 71.1017 5.78448V26.6557C71.1017 26.8949 71.2913 27.0904 71.5233 27.0904H88.257C88.5278 27.0904 88.7491 26.8623 88.7491 26.5832V23.4667C88.7491 23.1876 88.5278 22.9595 88.257 22.9595H75.8824ZM115.539 5.35001H119.477C119.686 5.35001 119.898 5.56622 119.898 5.78464V26.6544C119.898 26.8736 119.685 27.092 119.476 27.092H116.24L98.4501 8.39244C98.2942 8.2288 98.2073 8.0089 98.2073 7.7801V5.78464C98.2073 5.54548 98.3969 5.35001 98.629 5.35001H101.862L115.115 19.2353V5.7876C115.115 5.54696 115.306 5.35001 115.539 5.35001ZM98.6326 27.092C98.3991 27.092 98.208 26.8951 98.208 26.6544H98.2087V11.8917L102.867 16.7867C102.945 16.8689 102.989 16.9785 102.989 17.0932V26.6574C102.989 26.8965 102.799 27.092 102.567 27.092H98.6326ZM157.297 5.35001C157.065 5.35001 156.876 5.54548 156.876 5.78464V26.6574C156.876 26.8965 157.065 27.092 157.297 27.092H161.235C161.467 27.092 161.656 26.8965 161.656 26.6574V20.2801H166.191L170.481 26.7299C170.622 26.9469 170.867 27.092 171.043 27.092H175.719C175.93 27.092 176 26.9832 176 26.838C176 26.7655 175.965 26.6211 175.789 26.3671L172.238 21.0042C171.746 20.243 171.113 19.5544 171.113 19.5544V19.4819C173.925 18.4667 175.859 16.2566 175.859 12.9594C175.859 8.21251 172.203 5.35001 167.071 5.35001H157.297ZM161.656 16.3647V9.48013H166.754C169.39 9.48013 171.078 10.821 171.078 12.9587C171.078 15.0963 169.39 16.3647 166.754 16.3647H161.656Z" fill="#2F2C2C"/>
</g>
</svg>
