<svg class="MuiSvgIcon-root svg-icon " focusable="false" viewBox="0 0 20 20" aria-hidden="true" width="100%" height="100%" xmlns="http://www.w3.org/2000/svg" xmlns:xlink="http://www.w3.org/1999/xlink"><path fill-rule="evenodd" clip-rule="evenodd" d="m10.432 10.339.464-.574-.067-.089a4.913 4.913 0 0 0-.095-.121L8.768 7.127 5.211 2.732c-.39-.482-.681-.545-1.18-.168-.228.172-.447.42-.548.682-.134.35-.207.747-.209 1.124-.011 2.707-.01 5.414-.01 8.12l.001 2.32v.196c-.003.16-.004.32.004.479.048.896.468 1.515 1.127 1.726.276.088.45.036.635-.198.688-.864 1.385-1.721 2.082-2.578l.83-1.023 2.489-3.073zm1.482-.579 2.06 2.545c.212-.13.425-.254.637-.377.47-.273.934-.543 1.36-.865.925-.7.925-1.835-.001-2.534-.433-.326-.905-.6-1.384-.879-.216-.125-.434-.252-.65-.384l-.966 1.192-.002.002-1.054 1.3zm-5.568 6.865 2.6-3.207 2.46-3.035 1.869 2.305-6.883 3.991-.016-.019a1.685 1.685 0 0 1-.03-.035zm6.888-9.743L6.538 2.998l-.059.049 4.93 6.089c.11-.136.22-.27.327-.404l1.498-1.85z"></path></svg>