<svg class="MuiSvgIcon-root svg-icon " focusable="false" viewBox="0 0 28 72" aria-hidden="true" style="width:auto;height:auto" width="28" height="72" xmlns="http://www.w3.org/2000/svg"><path fill-rule="evenodd" clip-rule="evenodd" d="M11.4414 8.0361L11.4414 8.03606V8.03605C11.463 7.64827 11.4837 7.27726 11.5652 6.93085C12.5014 2.90012 16.1526 -0.299835 19.4058 0.0223711C20.4205 0.123455 20.5876 0.530952 20.0446 1.58286C18.0372 5.47777 15.2115 7.8027 11.4031 8.6019C11.4205 8.4101 11.4311 8.22127 11.4414 8.03625V8.03624L11.4414 8.03621L11.4414 8.03618L11.4414 8.03615L11.4414 8.0361ZM3.96324 34.6029C3.28508 28.0924 5.12544 24.1627 9.6391 22.6496C9.40244 23.3769 9.18554 24.1081 8.97056 24.8328C8.48244 26.4782 8.00418 28.0903 7.32698 29.5486C6.74402 30.8043 5.93912 31.8911 5.10325 33.0197C4.72367 33.5322 4.3377 34.0534 3.96324 34.6029ZM7.93677 22.1571C9.85229 20.5243 11.7444 18.9116 12.1443 15.4184C7.83461 15.7122 4.62812 19.7524 4.87137 25.3816C5.71102 24.0542 6.82782 23.1023 7.93677 22.1571ZM5.3067 43.7914C3.68502 40.2219 4.16661 34.9655 6.22073 32.5963C6.46562 32.3138 6.79639 32.155 7.12705 31.9962C7.28077 31.9224 7.43446 31.8486 7.5795 31.7624C7.63653 31.9522 7.70499 32.1404 7.77342 32.3286L7.77344 32.3286C7.92022 32.7323 8.06688 33.1355 8.1004 33.5535C8.33754 36.5583 7.30764 38.985 6.23555 41.5112L6.2355 41.5113C5.91908 42.2568 5.59898 43.0111 5.3067 43.7914ZM0.743405 42.0641C0.490326 47.3963 3.89338 52.8674 7.1097 52.8232C6.9854 52.4325 6.84847 52.0435 6.71103 51.6531L6.71099 51.653C6.40291 50.7779 6.09227 49.8956 5.91556 48.9694C5.40034 46.2869 3.90274 44.957 2.33349 43.5636C1.79981 43.0897 1.25784 42.6084 0.743405 42.0641ZM10.4833 48.1699C13.3406 51.1706 13.298 55.1448 13.2548 59.1671C13.2521 59.413 13.2495 59.6591 13.2475 59.9051C10.9968 58.67 8.01884 52.1722 10.4833 48.1699ZM11.2329 2.36653C11.2403 7.5629 9.29916 11.442 6.82979 14.9136C5.46365 12.0138 7.55463 4.82098 11.2329 2.36653ZM19.1842 66.8709C16.275 68.5293 9.96768 65.2946 9.25513 61.7788C11.9014 61.3208 17.017 63.9458 19.1842 66.8709ZM8.3885 52.1785C5.76188 50.3305 5.63411 42.8566 8.18456 40.2063C9.92172 43.3305 9.98315 46.9632 8.3885 52.1785ZM7.7981 15.6967C8.81041 10.7215 13.4346 8.01434 16.2677 9.42004C15.041 13.0155 12.5872 13.892 10.0933 14.7828C9.3203 15.059 8.54345 15.3365 7.7981 15.6967ZM2.86846 34.1445C0.298348 30.2749 -0.283981 24.1372 1.68414 20.8077C4.0798 24.9522 3.73826 29.561 2.86846 34.1445ZM3.8684 24.2788C1.93714 20.7787 2.73323 14.0219 5.75544 10.3923C5.77254 11.2285 5.81716 12.0348 5.8604 12.8159L5.8604 12.8159C5.95386 14.5044 6.04083 16.0756 5.82915 17.5788C5.60824 19.1474 5.09114 20.6481 4.56074 22.1873L4.56073 22.1874L4.56072 22.1874L4.56071 22.1874L4.5607 22.1875L4.56069 22.1875C4.32421 22.8738 4.08509 23.5677 3.8684 24.2788ZM0.530174 31.112C-1.11361 35.5123 1.3189 42.6988 4.34602 44.0224C4.27029 43.6458 4.17342 43.2743 4.07772 42.9073L4.07771 42.9073C3.86913 42.1073 3.66612 41.3288 3.69981 40.5665C3.79072 38.4153 3.22805 36.7159 2.20836 35.108C1.74247 34.3723 1.37051 33.5347 1.00159 32.704L1.00158 32.704L1.00156 32.704L1.00149 32.7038L1.00143 32.7037C0.944306 32.575 0.887255 32.4466 0.829938 32.3187C0.71972 32.0723 0.664501 31.7839 0.609367 31.4959C0.58461 31.3665 0.559869 31.2373 0.530174 31.112ZM4.98472 52.9457L4.98689 52.947C6.37815 53.7787 7.68021 54.557 8.97466 55.3531C9.17859 55.4794 9.35305 55.7448 9.48819 55.9943C10.2156 57.352 10.9344 58.7186 11.6065 59.9965L11.9821 60.7105C8.18348 60.4641 5.08018 58.0097 3.83936 52.2605C4.22868 52.4937 4.60994 52.7216 4.98472 52.9457ZM19.5526 65.4933C15.609 63.8728 13.233 59.065 14.4837 55.2806C16.5845 56.2725 18.5575 60.2085 19.5526 65.4933ZM27.2868 69.4552C23.1433 69.5464 19.6724 65.9762 19.8931 61.8804C22.1331 61.9535 25.0011 64.8648 27.2868 69.4552ZM16.3092 68.9301C18.2872 72.2627 22.8475 73.0809 26.5774 70.3958C26.4428 70.3348 26.3085 70.2736 26.1744 70.2125C22.9005 68.7214 19.7341 67.2793 16.3092 68.9301Z"></path></svg>