<svg xmlns="http://www.w3.org/2000/svg" xmlns:xlink="http://www.w3.org/1999/xlink" style="position: absolute; width: 0; height: 0" aria-hidden="true" id="__SVG_SPRITE_NODE__"><symbol xmlns="http://www.w3.org/2000/svg" viewBox="0 0 16 16" id="close"><path d="m9.41 8 6.3-6.29A1.004 1.004 0 1 0 14.29.29L8 6.59 1.71.29A1.004 1.004 0 0 0 .29 1.71L6.59 8l-6.3 6.29a1 1 0 0 0 0 1.42 1 1 0 0 0 1.42 0L8 9.41l6.29 6.3a1 1 0 0 0 1.42 0 1 1 0 0 0 0-1.42Z"></path></symbol><symbol viewBox="0 0 35 35" id="ty_star_rating"><path fill="currentColor" d="m17.5 0-4.131 13.369H0l10.816 8.262L6.684 35 17.5 26.738 28.315 35l-4.131-13.369L35 13.369H21.631L17.5 0z"></path><path d="M17.5 0v26.738L6.684 35l4.132-13.369L0 13.369h13.369L17.5 0z"></path></symbol><symbol xmlns="http://www.w3.org/2000/svg" viewBox="0 0 30 30" id="cart_loader"><path fill-rule="evenodd" clip-rule="evenodd" d="M11.876 1.686c.17.539-.13 1.113-.668 1.283a12.613 12.613 0 1 0 15.99 15.24 1.023 1.023 0 1 1 1.979.52A14.659 14.659 0 1 1 10.593 1.02c.539-.17 1.113.129 1.283.667Z"></path></symbol><symbol xmlns="http://www.w3.org/2000/svg" viewBox="0 0 18 18" id="cart_discount"><path d="M9.365 1.803h6.382a.45.45 0 0 1 .45.45v6.382a.9.9 0 0 1-.263.636l-6.305 6.305a.9.9 0 0 1-1.273 0L2.424 9.644a.9.9 0 0 1 0-1.273l6.305-6.305a.9.9 0 0 1 .636-.263Z"></path><path d="M12.6 6.3a.9.9 0 1 1-1.8 0 .9.9 0 0 1 1.8 0Z"></path><path d="M11.703 6.297h-.006v.006h.006v-.006Z"></path></symbol><symbol xmlns="http://www.w3.org/2000/svg" fill="none" viewBox="0 0 24 24" id="cart_arrow_carousel_left"><path d="M4 12h15M9.898 18l-6-6 6-6"></path></symbol><symbol xmlns="http://www.w3.org/2000/svg" fill="none" viewBox="0 0 24 24" id="cart_arrow_carousel_right"><path d="M20 12H5M14.102 18l6-6-6-6"></path></symbol></svg>