<svg class="MuiSvgIcon-root svg-icon " focusable="false" viewBox="0 0 28 72" aria-hidden="true" width="28" style="width:auto;height:auto" height="72" xmlns="http://www.w3.org/2000/svg" xmlns:xlink="http://www.w3.org/1999/xlink"><path fill-rule="evenodd" clip-rule="evenodd" d="M7.32214 0.199268C9.97018 -0.455342 12.139 0.534479 13.9743 2.70386C15.2638 4.22812 16.4569 5.91999 16.2469 8.49416C12.6009 7.92177 8.06073 3.76958 7.32214 0.199268ZM15.2591 15.2711C20.4638 16.1123 22.7857 19.4265 23.0747 25.3306C22.4649 24.7163 21.8555 24.1176 21.2509 23.5236L21.2509 23.5236C19.7641 22.0628 18.3065 20.6307 16.9438 19.066C16.4541 18.5048 16.155 17.6713 15.8165 16.7279C15.6495 16.2626 15.4729 15.7705 15.2591 15.2711ZM23.8457 34.606C24.5077 28.1864 22.4846 23.9362 18.2062 22.6554C18.4231 23.3825 18.6136 24.1049 18.8004 24.8132L18.8004 24.8133C19.2156 26.3878 19.6122 27.8921 20.2392 29.2205C20.8702 30.5545 21.7297 31.7122 22.629 32.9235L22.629 32.9235C23.0322 33.4667 23.4434 34.0206 23.8457 34.606ZM22.2249 43.8027C22.0069 43.0886 21.7866 42.3756 21.5663 41.6626L21.5662 41.6624C20.9328 39.6124 20.2993 37.5621 19.7201 35.4857C19.5225 34.7805 19.5793 33.9171 19.6386 33.1392C19.7523 31.6466 20.4316 31.2386 21.2665 32.2506C21.9038 33.0222 22.4794 33.9962 22.8227 35.024C23.8034 37.9397 23.6626 40.8585 22.672 43.6857C22.5238 43.7236 22.3756 43.7616 22.2249 43.8027ZM20.7427 52.8875C21.7456 48.3906 23.2722 44.308 27.0195 42.4137C27.553 46.9929 24.0651 52.6946 20.7427 52.8875ZM20.261 13.8534L20.2609 13.8533L20.2609 13.8533L20.2609 13.8533C19.7468 12.9434 19.2394 12.0454 18.6581 11.2362C17.5222 9.6526 17.2185 7.75909 16.9023 5.78801C16.7165 4.62987 16.5264 3.44494 16.1607 2.28038C19.7178 4.1525 22.2448 10.667 20.985 15.1133C20.7369 14.6958 20.4982 14.2734 20.261 13.8534ZM8.37433 66.9347C11.4324 63.864 14.6017 61.5428 18.5465 61.7326C17.7586 65.3187 11.9289 68.3641 8.37433 66.9347ZM18.8889 49.9425L18.8889 49.9422C18.5896 48.0895 18.2993 46.292 18.2387 44.482C18.2048 43.4988 18.5359 42.4964 18.8757 41.4675C19.0321 40.994 19.1903 40.5148 19.3157 40.0294C22.2132 42.6795 22.1391 49.9181 19.2588 52.3437C19.1453 51.5298 19.0163 50.7311 18.8889 49.9425ZM14.6478 58.1448C14.671 58.7316 14.6942 59.3201 14.7033 59.9077C16.7165 57.6308 18.3814 55.0819 18.2208 51.4104C18.1904 50.728 17.9153 50.0649 17.6403 49.4018L17.6402 49.4017C17.5138 49.0969 17.3873 48.792 17.2846 48.4852C17.1083 48.7051 16.92 48.9151 16.7316 49.1251C16.3157 49.5888 15.8996 50.0527 15.6123 50.623C14.4419 52.9404 14.5442 55.5258 14.6478 58.1448ZM11.4207 9.46444C13.8365 7.75043 19.2907 10.7958 19.7996 15.5235C19.1621 15.2526 18.5053 15.0285 17.8493 14.8046L17.8493 14.8046C15.297 13.9337 12.757 13.067 11.4207 9.46444ZM15.7039 60.7645C19.6933 60.4451 22.7069 57.9848 23.9444 52.283C23.4902 52.5542 23.0479 52.8177 22.6146 53.0757L22.6136 53.0764C21.2634 53.8805 20.0018 54.632 18.7472 55.398C18.5718 55.5055 18.4211 55.7205 18.3075 55.9292C17.6862 57.069 17.0719 58.2148 16.4832 59.3127C16.2177 59.808 15.9573 60.2936 15.7039 60.7645ZM23.9711 24.1702C22.2963 19.9484 21.1625 15.5907 22.2494 10.768C24.8925 13.2094 25.8608 20.8402 23.9711 24.1702ZM24.5585 31.7552L24.5586 31.7554L24.5586 31.7554L24.5586 31.7556C24.6478 32.5722 24.7394 33.4095 24.8067 34.2736C27.5066 29.9538 28.0278 23.5658 25.9183 20.5995C25.7344 21.234 25.5211 21.8548 25.3102 22.4687L25.3102 22.4688L25.3102 22.4688C24.8409 23.8346 24.3834 25.1662 24.288 26.5384C24.172 28.219 24.3597 29.9358 24.5585 31.7552ZM27.5388 31.3927C29.09 35.1117 26.4593 42.9164 23.6408 43.9283C23.7052 43.3232 23.7514 42.704 23.7979 42.0801C23.9067 40.6206 24.0175 39.1359 24.367 37.7491C24.6497 36.6281 25.2207 35.624 25.7906 34.622C26.0326 34.1964 26.2744 33.7712 26.4939 33.3376C26.6969 32.9386 26.91 32.5486 27.1369 32.1333C27.2661 31.8968 27.3998 31.652 27.5388 31.3927ZM3.90416 69.3447C3.0366 69.7569 2.16848 70.1693 1.27069 70.391C4.65484 72.9809 9.59274 72.4686 11.5145 68.677C11.2987 68.6589 11.0815 68.6574 10.8664 68.6559H10.8662C10.4022 68.6526 9.94771 68.6494 9.53592 68.4809C7.48965 67.6411 5.69812 68.4923 3.90416 69.3447ZM13.2391 55.1078C14.3927 59.5256 12.0781 63.7822 8.10114 65.5626C9.03486 61.4294 10.1366 57.5776 13.2391 55.1078ZM5.82077 59.8141C6.97434 64.2319 4.65979 68.4885 0.6828 70.2689C1.61653 66.1357 2.71822 62.2839 5.82077 59.8141Z"></path></svg>