<svg width="17" height="16" viewBox="0 0 17 16" fill="none" xmlns="http://www.w3.org/2000/svg">
<path d="M10.6313 4.6647L10.7906 4.6727C11.7439 4.73736 13.0799 5.34803 13.7959 6.3967C13.8483 6.47346 13.8841 6.56033 13.901 6.65174C13.9178 6.74314 13.9153 6.83706 13.8938 6.92746C13.8722 7.01785 13.8319 7.10274 13.7756 7.17666C13.7192 7.25058 13.6481 7.31191 13.5666 7.3567C13.5333 7.37536 13.3186 7.46203 13.2353 7.50136C13.0655 7.5806 12.9043 7.67687 12.7539 7.7887C12.3446 8.09603 12.1219 8.46136 12.1259 8.91803C12.1326 9.50803 12.3519 9.88737 12.7306 10.1487C12.8693 10.244 13.0213 10.3174 13.1746 10.3687C13.2586 10.3974 13.4586 10.446 13.4706 10.45C13.5999 10.4965 13.7117 10.5817 13.7907 10.6941C13.8697 10.8066 13.9121 10.9406 13.9119 11.078C13.9119 12.8254 11.8853 15.332 10.3879 15.332C9.86128 15.332 9.53995 15.2714 9.06595 15.122L9.00061 15.1014C8.69195 15.004 8.53261 14.9734 8.24528 14.9734C7.89861 14.9734 7.66995 15.0134 7.23328 15.1314L7.10195 15.1667C6.71861 15.2687 6.45928 15.3174 6.10195 15.332C4.26928 15.332 2.57861 11.9367 2.57861 9.28403C2.57861 6.70403 3.76928 4.6707 6.10261 4.6707C6.30061 4.6707 6.50128 4.7007 6.70861 4.75603C6.97728 4.82736 7.22461 4.92936 7.57261 5.0947C8.09728 5.34403 8.20461 5.38803 8.24528 5.38803H8.25595C8.27595 5.38603 8.34128 5.3567 8.95995 5.08336C9.66728 4.77203 10.2026 4.6267 10.7906 4.6727L10.6306 4.6647H10.6313Z" fill="white"/>
<path d="M9.91195 1.33203C10.0888 1.33203 10.2583 1.40227 10.3834 1.52729C10.5084 1.65232 10.5786 1.82189 10.5786 1.9987C10.5786 2.52913 10.3679 3.03784 9.99283 3.41291C9.61775 3.78798 9.10905 3.9987 8.57861 3.9987C8.4018 3.9987 8.23223 3.92846 8.10721 3.80344C7.98218 3.67841 7.91195 3.50884 7.91195 3.33203C7.91195 2.8016 8.12266 2.29289 8.49773 1.91782C8.87281 1.54274 9.38151 1.33203 9.91195 1.33203Z" fill="white"/>
</svg>
