<svg width="151" height="24" viewBox="0 0 151 24" fill="none" xmlns="http://www.w3.org/2000/svg">
<g clip-path="url(#clip0_12182_1021)">
<path d="M64.8813 14.5144V18.6026H75.4619C75.6934 18.6026 75.8826 18.7918 75.8826 19.0233V21.6086C75.8826 21.8402 75.6934 22.0293 75.4619 22.0293H61.1542C60.9559 22.0293 60.7937 21.8672 60.7937 21.6688V4.35518C60.7937 4.15678 60.9559 3.99463 61.1542 3.99463H75.2819C75.5135 3.99463 75.7026 4.18381 75.7026 4.41537V7.00062C75.7026 7.23218 75.5135 7.42136 75.2819 7.42136H64.8819V11.0882H74.3802C74.6118 11.0882 74.801 11.2774 74.801 11.509V14.0942C74.801 14.3258 74.6118 14.515 74.3802 14.515H64.8819L64.8813 14.5144Z" fill="white"/>
<path d="M102.155 3.99414H98.7887C98.5891 3.99414 98.4257 4.15752 98.4257 4.35714V15.5126L87.094 3.99475H84.33C84.1316 3.99475 83.9695 4.15691 83.9695 4.3553V6.01062C83.9695 6.20042 84.0438 6.38284 84.1771 6.51858L99.3882 22.0307H102.155C102.333 22.0307 102.515 21.8495 102.515 21.6677V4.35469C102.515 4.17349 102.334 3.99414 102.155 3.99414H102.155ZM83.9701 21.6665C83.9701 21.8661 84.1335 22.0295 84.3331 22.0295H87.6972C87.8956 22.0295 88.0577 21.8673 88.0577 21.6689V13.735C88.0577 13.6398 88.0203 13.5489 87.9539 13.4808L83.9707 9.42015V21.6665H83.9701Z" fill="white"/>
<path d="M109.787 7.42038C109.555 7.42038 109.366 7.2312 109.366 6.99964V4.41439C109.366 4.18283 109.555 3.99365 109.787 3.99365H126.86C127.091 3.99365 127.281 4.18283 127.281 4.41439V6.99964C127.281 7.2312 127.091 7.42038 126.86 7.42038H120.367V21.6678C120.367 21.8662 120.205 22.0284 120.007 22.0284H116.64C116.442 22.0284 116.28 21.8662 116.28 21.6678V7.42038H109.787Z" fill="white"/>
<path d="M134.132 4.35469C134.132 4.15629 134.294 3.99414 134.493 3.99414H142.849C147.238 3.99414 150.363 6.36871 150.363 10.3065C150.363 13.0416 148.71 14.875 146.305 15.7171V15.7773C146.305 15.7773 146.846 16.3485 147.267 16.98L150.303 21.4287C150.454 21.6394 150.484 21.7592 150.484 21.8194C150.484 21.9398 150.424 22.0301 150.244 22.0301H146.246C146.095 22.0301 145.885 21.9097 145.765 21.7297L142.097 16.3793H138.22V21.6695C138.22 21.8679 138.058 22.0301 137.859 22.0301H134.493C134.294 22.0301 134.132 21.8679 134.132 21.6695V4.35469ZM138.22 7.42087V13.1319H142.578C144.832 13.1319 146.275 12.0797 146.275 10.3065C146.275 8.53322 144.832 7.42087 142.578 7.42087H138.22Z" fill="white"/>
<path d="M49.0491 15.0257H52.3002C52.5391 15.0257 52.7117 15.2499 52.6571 15.4827C51.6282 19.8817 48.5443 22.3312 43.5685 22.3312C38.1296 22.3312 33.8589 18.5734 33.8589 13.0111C33.8589 7.4487 38.1296 3.69336 43.5685 3.69336C49.0074 3.69336 51.9354 7.36086 52.7566 10.8128C52.8118 11.0456 52.638 11.2698 52.3991 11.2698H49.1321C48.9693 11.2698 48.8293 11.161 48.7807 11.0056C48.0308 8.62124 46.0303 7.12009 43.5691 7.12009C40.4734 7.12009 37.949 9.49466 37.949 13.0111C37.949 16.5275 40.3524 18.9045 43.5691 18.9045C44.846 18.9045 45.9658 18.5274 46.8576 17.8523C47.688 17.2258 48.3225 16.3457 48.7015 15.2769C48.7543 15.1283 48.8913 15.0257 49.0491 15.0257Z" fill="white"/>
<path d="M25.2881 22.5939C22.7588 25.6097 15.4145 23.6141 8.88785 18.1372C7.64528 17.0954 6.52249 16.0015 5.53544 14.8935C3.1492 18.1187 2.04483 20.7924 2.94405 21.6916C3.69831 22.4459 5.69882 21.7918 8.22633 20.1549C8.37743 20.0572 8.57705 20.0787 8.70419 20.2058C8.87556 20.3766 8.85468 20.6671 8.64584 20.7961C4.92306 23.2665 1.78256 24.2259 0.541834 22.9846C-0.897895 21.5448 0.623526 17.5481 4.02999 13.0526C0.95029 8.93185 -0.132578 4.88476 1.6505 2.75956C3.22352 0.884964 6.65946 0.947 10.6021 2.58082C10.7207 2.6232 10.7858 2.73438 10.7858 2.84924C10.7858 2.9168 10.7637 2.98559 10.7158 3.0421C10.6353 3.13792 10.5039 3.1717 10.3865 3.12871C7.6158 2.10603 5.31616 2.10665 4.25418 3.37194C3.01652 4.84729 3.7628 7.68253 5.9095 10.7456C6.63427 9.91337 7.41495 9.07619 8.24537 8.24515C14.4422 2.04768 21.0414 -1.40116 22.9842 0.541615C24.997 2.55441 23.0953 6.70715 19.0206 11.1394C18.8763 11.3138 18.6109 11.3095 18.4531 11.1516C18.3124 11.011 18.2995 10.7874 18.4224 10.632C21.2723 7.01671 22.6728 3.92535 21.6925 2.94506C20.3522 1.60483 15.0681 4.71401 9.89209 9.89065C8.98182 10.8009 8.13604 11.7136 7.36642 12.6086C8.33505 13.7314 9.47012 14.8541 10.7459 15.9247C16.2628 20.5535 22.3018 22.4404 24.2347 20.1364C25.3379 18.822 24.8649 16.4284 23.2311 13.7553C23.2028 13.708 23.1881 13.6552 23.1881 13.6024C23.1881 13.5366 23.2102 13.4715 23.255 13.4187C23.3785 13.2713 23.615 13.2781 23.7157 13.4457C26.1658 17.1575 26.9066 20.6671 25.2887 22.5939H25.2881Z" fill="white"/>
</g>
<defs>
<clipPath id="clip0_12182_1021">
<rect width="150.484" height="24" fill="white"/>
</clipPath>
</defs>
</svg>
