<svg width="314" height="25" viewBox="0 0 314 25" fill="none" xmlns="http://www.w3.org/2000/svg">
<path fill-rule="evenodd" clip-rule="evenodd" d="M9.42622 18.5915C15.7885 23.9305 22.9478 25.8759 25.4135 22.936C26.99 21.0577 26.2685 17.6365 23.8807 14.0182C23.7825 13.8548 23.5519 13.8482 23.4316 13.9919C23.3879 14.0434 23.3663 14.1068 23.3663 14.1709C23.3663 14.2224 23.3807 14.2739 23.4082 14.32C25.0009 16.9257 25.462 19.2591 24.3866 20.5404C22.5023 22.7863 16.6154 20.947 11.2374 16.4348C9.99384 15.3912 8.88735 14.2966 7.94312 13.2021C8.69335 12.3297 9.51783 11.44 10.4052 10.5527C15.4508 5.50638 20.6019 2.47551 21.9084 3.78198C22.864 4.73759 21.4988 7.7511 18.7206 11.2753C18.6009 11.4268 18.6134 11.6448 18.7506 11.7819C18.9044 11.9358 19.1631 11.94 19.3038 11.7699C23.2759 7.44933 25.1297 3.40118 23.1675 1.43907C21.2737 -0.454773 14.8407 2.90721 8.79993 8.9486C7.99042 9.75871 7.22941 10.5748 6.52288 11.3861C4.43025 8.40014 3.70277 5.63631 4.90925 4.19811C5.94449 2.96469 8.18621 2.96409 10.8872 3.96101C11.0015 4.00292 11.1297 3.96999 11.2081 3.87659C11.2548 3.8215 11.2764 3.75444 11.2764 3.68858C11.2764 3.57661 11.2129 3.46824 11.0973 3.42692C7.25396 1.83425 3.90455 1.77377 2.37115 3.60116C0.632974 5.67284 1.68857 9.618 4.69071 13.635C1.37004 18.0173 -0.113069 21.9133 1.2904 23.3168C2.49988 24.5269 5.56129 23.5916 9.19031 21.1835C9.39389 21.0577 9.41425 20.7745 9.2472 20.6081C9.12325 20.4841 8.92866 20.4632 8.78137 20.5584C6.31751 22.154 4.36738 22.7917 3.63211 22.0564C2.75554 21.1799 3.8321 18.5735 6.15824 15.4295C7.12043 16.5096 8.21495 17.576 9.42622 18.5915ZM48.5768 15.5579H51.746C51.9789 15.5579 52.1472 15.7765 52.0939 16.0034C51.091 20.2916 48.0847 22.6795 43.2342 22.6795C37.9322 22.6795 33.7691 19.0163 33.7691 13.594C33.7691 8.20288 37.9322 4.51098 43.2342 4.51098C48.69 4.51098 51.3904 8.08612 52.1909 11.4511C52.2448 11.678 52.0753 11.8966 51.8424 11.8966H48.6577C48.499 11.8966 48.3625 11.7906 48.3152 11.6391C47.5841 9.31476 45.634 7.85141 43.2348 7.85141C40.2171 7.85141 37.7562 10.1662 37.7562 13.594C37.7562 16.9931 40.0991 19.339 43.2348 19.339C44.4796 19.339 45.5711 18.9714 46.4405 18.3134C47.25 17.7026 47.8685 16.8446 48.2379 15.8028C48.2894 15.6579 48.423 15.5579 48.5768 15.5579ZM64.0099 19.0446V15.0599H73.2695C73.4953 15.0599 73.6797 14.8755 73.6797 14.6498V12.1296C73.6797 11.9039 73.4953 11.7195 73.2695 11.7195H64.0105V8.14496H74.1485C74.3742 8.14496 74.5586 7.96054 74.5586 7.73481V5.21467C74.5586 4.98894 74.3742 4.80453 74.1485 4.80453H60.3766C60.1832 4.80453 60.0252 4.9626 60.0252 5.156V22.0336C60.0252 22.227 60.1832 22.385 60.3766 22.385H74.3239C74.5497 22.385 74.7341 22.2006 74.7341 21.9749V19.4548C74.7341 19.229 74.5497 19.0446 74.3239 19.0446H64.0099ZM97.0633 4.80453H100.345C100.519 4.80453 100.696 4.97936 100.696 5.156V22.0324C100.696 22.2096 100.519 22.3862 100.344 22.3862H97.6477L82.8197 7.26479C82.6897 7.13247 82.6173 6.95464 82.6173 6.76963V5.156C82.6173 4.9626 82.7754 4.80453 82.9687 4.80453H85.6631L96.7095 16.0329V5.15839C96.7095 4.9638 96.8687 4.80453 97.0633 4.80453ZM82.9717 22.3862C82.7771 22.3862 82.6179 22.227 82.6179 22.0324H82.6185V10.0945L86.5014 14.0528C86.566 14.1193 86.6026 14.2079 86.6026 14.3007V22.0348C86.6026 22.2282 86.4445 22.3862 86.2511 22.3862H82.9717ZM107.784 8.14496C107.559 8.14496 107.374 7.96054 107.374 7.73481V5.21467C107.374 4.98894 107.559 4.80453 107.784 4.80453H124.427C124.653 4.80453 124.837 4.98894 124.837 5.21467V7.73481C124.837 7.96054 124.653 8.14496 124.427 8.14496H118.098V22.0336C118.098 22.227 117.94 22.385 117.746 22.385H114.465C114.271 22.385 114.113 22.227 114.113 22.0336V8.14496H107.784ZM131.868 4.80453C131.675 4.80453 131.517 4.9626 131.517 5.156V22.0348C131.517 22.2282 131.675 22.3862 131.868 22.3862H135.15C135.343 22.3862 135.502 22.2282 135.502 22.0348V16.8777H139.281L142.857 22.0934C142.974 22.2689 143.179 22.3862 143.325 22.3862H147.223C147.398 22.3862 147.457 22.2982 147.457 22.1809C147.457 22.1222 147.427 22.0054 147.281 21.8001L144.321 17.4633C143.911 16.8478 143.383 16.291 143.383 16.291V16.2323C145.728 15.4114 147.339 13.6241 147.339 10.9579C147.339 7.1193 144.292 4.80453 140.014 4.80453H131.868ZM135.502 13.7115V8.14436H139.75C141.948 8.14436 143.354 9.22869 143.354 10.9573C143.354 12.6859 141.948 13.7115 139.75 13.7115H135.502Z" fill="#2F2C2C"/>
<line x1="162.644" y1="0.888027" x2="162.644" y2="24.3296" stroke="#2F2C2C" stroke-width="0.375"/>
<g clip-path="url(#clip0_2613_8805)">
<path d="M177.457 4.369H180.544V11.9973H188.006V4.369H191.094V22.3485H188.006V14.694H180.544V22.3485H177.457V4.369Z" fill="#2F2C2C"/>
<path d="M214.222 15.2341L208.124 5.39668V4.3695H211.159L215.791 12.3312L220.577 4.3695H223.408V5.39668L217.309 15.1055V22.3485H214.222V15.2341Z" fill="#2F2C2C"/>
<path d="M247.05 12.8192C248.852 12.8192 249.906 11.9463 249.906 9.94294C249.906 7.93955 248.852 7.0662 247.05 7.0662H242.959V12.8197H247.05V12.8192ZM239.872 4.369H247.616C251.167 4.369 253.045 6.44953 253.045 9.89106C253.045 12.2287 252.016 14.1802 249.881 15.0797L253.251 21.3209V22.3481H250.215L246.51 15.4388H242.959V22.3481H239.872V4.369Z" fill="#2F2C2C"/>
<path d="M280.393 16.4151V10.3025C280.393 8.37581 279.081 6.8091 276.405 6.8091C273.73 6.8091 272.417 8.37581 272.417 10.3025V16.4151C272.417 18.3418 273.729 19.9085 276.405 19.9085C279.081 19.9085 280.393 18.3418 280.393 16.4151ZM269.329 16.2612V10.4563C269.329 6.37243 272.082 3.98379 276.405 3.98379C280.728 3.98379 283.481 6.37243 283.481 10.4563V16.2612C283.481 20.3452 280.727 22.7338 276.405 22.7338C272.083 22.7338 269.329 20.3452 269.329 16.2612Z" fill="#2F2C2C"/>
<path d="M298.453 21.3213L304.088 13.0506L298.89 5.39664V4.369H302.029L306.018 10.6363L310.186 4.369H313.145V5.39664L307.896 13.0249L313.582 21.3213V22.3485H310.443L305.94 15.5164L301.412 22.3485H298.453V21.3213Z" fill="#2F2C2C"/>
</g>
<defs>
<clipPath id="clip0_2613_8805">
<rect width="136.125" height="18.75" fill="white" transform="translate(177.457 3.98379)"/>
</clipPath>
</defs>
</svg>
