<svg width="32" height="32" viewBox="0 0 32 32" fill="none" xmlns="http://www.w3.org/2000/svg">
<path d="M0 10C0 4.47715 4.47715 0 10 0H22C27.5228 0 32 4.47715 32 10V22C32 27.5228 27.5228 32 22 32H10C4.47715 32 0 27.5228 0 22V10Z" fill="white"/>
<path d="M23.5 16.0458C23.5 11.8784 20.1421 8.5 16 8.5C11.8579 8.5 8.5 11.8784 8.5 16.0458C8.5 19.8121 11.2426 22.9339 14.8281 23.5V18.2271H12.9238V16.0458H14.8281V14.3834C14.8281 12.4922 15.9479 11.4476 17.661 11.4476C18.4816 11.4476 19.3398 11.595 19.3398 11.595V13.452H18.3941C17.4625 13.452 17.1719 14.0337 17.1719 14.6304V16.0458H19.252L18.9194 18.2271H17.1719V23.5C20.7574 22.9339 23.5 19.8121 23.5 16.0458Z" fill="#2F2C2C"/>
</svg>
