<svg width="17" height="16" viewBox="0 0 17 16" fill="none" xmlns="http://www.w3.org/2000/svg">
<path d="M9.29104 7.9809C9.2693 7.95282 9.25055 7.9283 9.23363 7.90617C9.20317 7.86633 9.17858 7.83416 9.15328 7.80315L7.48607 5.74358C6.48055 4.50147 5.47495 3.25927 4.46961 2.0168C4.13951 1.60861 3.89193 1.55529 3.46914 1.8746C3.27552 2.02061 3.08952 2.23137 3.00445 2.45292C2.89019 2.75001 2.82861 3.08647 2.82734 3.40641C2.81747 5.70184 2.81834 7.99727 2.81922 10.2927C2.81947 10.9485 2.81972 11.6044 2.81972 12.2602C2.81972 12.3153 2.81914 12.3705 2.81855 12.4257C2.81712 12.5611 2.81568 12.6967 2.8229 12.8315C2.86353 13.5914 3.21966 14.117 3.7783 14.2954C4.01254 14.3703 4.15982 14.3259 4.31725 14.1278C4.90039 13.3948 5.49133 12.668 6.08216 11.9413C6.31718 11.6522 6.5522 11.3631 6.78669 11.0737C7.4873 10.2092 8.18746 9.34424 8.89632 8.46853L9.29104 7.9809Z" fill="white"/>
<path d="M10.1537 7.97737C10.7371 8.69789 11.3071 9.4019 11.9013 10.1351C12.0801 10.0254 12.2608 9.92029 12.4408 9.81567C12.8385 9.58447 13.2328 9.35526 13.5937 9.08259C14.379 8.4884 14.379 7.52602 13.5931 6.93373C13.2261 6.65686 12.826 6.42429 12.4199 6.18826C12.2366 6.08173 12.0521 5.9745 11.8689 5.86216C11.5916 6.20433 11.3198 6.53939 11.0504 6.87153L11.0495 6.87263C10.7494 7.2426 10.4522 7.60893 10.1537 7.97737Z" fill="white"/>
<path d="M7.6366 11.0793L9.72346 8.50533C10.2542 9.15982 10.7684 9.794 11.308 10.4599L5.47083 13.8448L5.45727 13.8287C5.44886 13.8188 5.44033 13.8087 5.43211 13.7984C6.16595 12.8934 6.8998 11.9882 7.6366 11.0793Z" fill="white"/>
<path d="M11.2735 5.53637C9.35954 4.42671 7.47668 3.33482 5.59445 2.24294C5.57795 2.25691 5.56144 2.27087 5.54494 2.2842C6.93391 4.00011 8.32289 5.71538 9.72583 7.4478C9.81841 7.33344 9.91022 7.22003 10.0015 7.10728C10.4291 6.57907 10.8451 6.06526 11.2735 5.53637Z" fill="white"/>
</svg>
