<svg width="32" height="32" viewBox="0 0 32 32" fill="none" xmlns="http://www.w3.org/2000/svg">
<path d="M0 10C0 4.47715 4.47715 0 10 0H22C27.5228 0 32 4.47715 32 10V22C32 27.5228 27.5228 32 22 32H10C4.47715 32 0 27.5228 0 22V10Z" fill="white"/>
<path fill-rule="evenodd" clip-rule="evenodd" d="M12.8125 10.375C12.166 10.375 11.546 10.6318 11.0889 11.0889C10.6318 11.546 10.375 12.166 10.375 12.8125V18.8125C10.375 19.459 10.6318 20.079 11.0889 20.5361C11.546 20.9932 12.166 21.25 12.8125 21.25H18.8125C19.459 21.25 20.079 20.9932 20.5361 20.5361C20.9932 20.079 21.25 19.459 21.25 18.8125V12.8125C21.25 12.166 20.9932 11.546 20.5361 11.0889C20.079 10.6318 19.459 10.375 18.8125 10.375H12.8125ZM10.2934 10.2934C10.9615 9.62533 11.8677 9.25 12.8125 9.25H18.8125C19.7573 9.25 20.6635 9.62533 21.3316 10.2934C21.9997 10.9615 22.375 11.8677 22.375 12.8125V18.8125C22.375 19.7573 21.9997 20.6635 21.3316 21.3316C20.6635 21.9997 19.7573 22.375 18.8125 22.375H12.8125C11.8677 22.375 10.9615 21.9997 10.2934 21.3316C9.62533 20.6635 9.25 19.7573 9.25 18.8125V12.8125C9.25 11.8677 9.62533 10.9615 10.2934 10.2934ZM19.1875 11.875C19.4982 11.875 19.75 12.1268 19.75 12.4375V12.445C19.75 12.7557 19.4982 13.0075 19.1875 13.0075C18.8768 13.0075 18.625 12.7557 18.625 12.445V12.4375C18.625 12.1268 18.8768 11.875 19.1875 11.875ZM13.8238 13.8238C14.3512 13.2963 15.0666 13 15.8125 13C16.5584 13 17.2738 13.2963 17.8012 13.8238C18.3287 14.3512 18.625 15.0666 18.625 15.8125C18.625 16.5584 18.3287 17.2738 17.8012 17.8012C17.2738 18.3287 16.5584 18.625 15.8125 18.625C15.0666 18.625 14.3512 18.3287 13.8238 17.8012C13.2963 17.2738 13 16.5584 13 15.8125C13 15.0666 13.2963 14.3512 13.8238 13.8238ZM15.8125 14.125C15.3649 14.125 14.9357 14.3028 14.6193 14.6193C14.3028 14.9357 14.125 15.3649 14.125 15.8125C14.125 16.2601 14.3028 16.6893 14.6193 17.0057C14.9357 17.3222 15.3649 17.5 15.8125 17.5C16.2601 17.5 16.6893 17.3222 17.0057 17.0057C17.3222 16.6893 17.5 16.2601 17.5 15.8125C17.5 15.3649 17.3222 14.9357 17.0057 14.6193C16.6893 14.3028 16.2601 14.125 15.8125 14.125Z" fill="#2F2C2C"/>
</svg>
