<svg width="32" height="32" viewBox="0 0 32 32" fill="none" xmlns="http://www.w3.org/2000/svg">
<path d="M0 10C0 4.47715 4.47715 0 10 0H22C27.5228 0 32 4.47715 32 10V22C32 27.5228 27.5228 32 22 32H10C4.47715 32 0 27.5228 0 22V10Z" fill="white"/>
<path fill-rule="evenodd" clip-rule="evenodd" d="M11.5 10.5625C11.2514 10.5625 11.0129 10.6613 10.8371 10.8371C10.6613 11.0129 10.5625 11.2514 10.5625 11.5V20.5C10.5625 20.7486 10.6613 20.9871 10.8371 21.1629C11.0129 21.3387 11.2514 21.4375 11.5 21.4375H20.5C20.7486 21.4375 20.9871 21.3387 21.1629 21.1629C21.3387 20.9871 21.4375 20.7486 21.4375 20.5V11.5C21.4375 11.2514 21.3387 11.0129 21.1629 10.8371C20.9871 10.6613 20.7486 10.5625 20.5 10.5625H11.5ZM10.0416 10.0416C10.4284 9.6548 10.953 9.4375 11.5 9.4375H20.5C21.047 9.4375 21.5716 9.6548 21.9584 10.0416C22.3452 10.4284 22.5625 10.953 22.5625 11.5V20.5C22.5625 21.047 22.3452 21.5716 21.9584 21.9584C21.5716 22.3452 21.047 22.5625 20.5 22.5625H11.5C10.953 22.5625 10.4284 22.3452 10.0416 21.9584C9.6548 21.5716 9.4375 21.047 9.4375 20.5V11.5C9.4375 10.953 9.6548 10.4284 10.0416 10.0416ZM13 12.4375C13.3107 12.4375 13.5625 12.6893 13.5625 13V13.0075C13.5625 13.3182 13.3107 13.57 13 13.57C12.6893 13.57 12.4375 13.3182 12.4375 13.0075V13C12.4375 12.6893 12.6893 12.4375 13 12.4375ZM13 14.6875C13.3107 14.6875 13.5625 14.9393 13.5625 15.25V19C13.5625 19.3107 13.3107 19.5625 13 19.5625C12.6893 19.5625 12.4375 19.3107 12.4375 19V15.25C12.4375 14.9393 12.6893 14.6875 13 14.6875ZM16.4804 14.9572C16.3816 14.7954 16.2034 14.6875 16 14.6875C15.6893 14.6875 15.4375 14.9393 15.4375 15.25V19C15.4375 19.3107 15.6893 19.5625 16 19.5625C16.3107 19.5625 16.5625 19.3107 16.5625 19V16.75C16.5625 16.5014 16.6613 16.2629 16.8371 16.0871C17.0129 15.9113 17.2514 15.8125 17.5 15.8125C17.7486 15.8125 17.9871 15.9113 18.1629 16.0871C18.3387 16.2629 18.4375 16.5014 18.4375 16.75V19C18.4375 19.3107 18.6893 19.5625 19 19.5625C19.3107 19.5625 19.5625 19.3107 19.5625 19V16.75C19.5625 16.203 19.3452 15.6784 18.9584 15.2916C18.5716 14.9048 18.047 14.6875 17.5 14.6875C17.1394 14.6875 16.7885 14.782 16.4804 14.9572Z" fill="#2F2C2C"/>
</svg>
